<svg aria-hidden="true" style="position: absolute; width: 0; height: 0; overflow: hidden;" version="1.1" xmlns="http://www.w3.org/2000/svg" xmlns:xlink="http://www.w3.org/1999/xlink">
<defs>
<symbol id="icon-sun" viewBox="0 0 32 32">
<path d="M16 22.667c-3.68 0-6.667-2.987-6.667-6.667s2.987-6.667 6.667-6.667 6.667 2.987 6.667 6.667-2.987 6.667-6.667 6.667zM16 10.667c-2.947 0-5.333 2.387-5.333 5.333s2.387 5.333 5.333 5.333 5.333-2.387 5.333-5.333-2.387-5.333-5.333-5.333zM16.667 6v-5.333c0-0.373-0.293-0.667-0.667-0.667s-0.667 0.293-0.667 0.667v5.333c0 0.373 0.293 0.667 0.667 0.667s0.667-0.293 0.667-0.667zM16.667 31.333v-5.333c0-0.373-0.293-0.667-0.667-0.667s-0.667 0.293-0.667 0.667v5.333c0 0.373 0.293 0.667 0.667 0.667s0.667-0.293 0.667-0.667zM6.667 16c0-0.373-0.293-0.667-0.667-0.667h-5.333c-0.373 0-0.667 0.293-0.667 0.667s0.293 0.667 0.667 0.667h5.333c0.373 0 0.667-0.293 0.667-0.667zM32 16c0-0.373-0.293-0.667-0.667-0.667h-5.333c-0.373 0-0.667 0.293-0.667 0.667s0.293 0.667 0.667 0.667h5.333c0.373 0 0.667-0.293 0.667-0.667zM23.8 9.133l4-4c0.267-0.267 0.267-0.68 0-0.947s-0.68-0.267-0.947 0l-4 4c-0.267 0.267-0.267 0.68 0 0.947 0.118 0.123 0.283 0.199 0.467 0.199s0.349-0.076 0.466-0.199l0-0zM5.133 27.8l4-4c0.267-0.267 0.267-0.68 0-0.947s-0.68-0.267-0.947 0l-4 4c-0.267 0.267-0.267 0.68 0 0.947 0.118 0.123 0.283 0.199 0.467 0.199s0.349-0.076 0.466-0.199l0-0zM9.133 9.133c0.267-0.267 0.267-0.68 0-0.947l-4-3.987c-0.267-0.267-0.68-0.267-0.947 0s-0.267 0.68 0 0.947l4 4c0.118 0.123 0.283 0.199 0.467 0.199s0.349-0.076 0.466-0.199l0-0zM27.8 27.8c0.267-0.267 0.267-0.68 0-0.947l-4-4c-0.267-0.267-0.68-0.267-0.947 0s-0.267 0.68 0 0.947l4 4c0.118 0.123 0.283 0.199 0.467 0.199s0.349-0.076 0.466-0.199l0-0z"></path>
</symbol>
<symbol id="icon-moon" viewBox="0 0 32 32">
<path d="M18.667 32c-8.833-0.010-15.99-7.167-16-15.999v-0.001c-0.204-11.941 13.375-19.98 23.721-13.988l2.071 1.149-2.057 1.173c-8.933 4.917-8.28 18.493 1.067 22.541l2.161 0.975-1.956 1.341c-2.517 1.755-5.639 2.805-9.006 2.808h-0.001zM18.667 2.667c-7.36 0.008-13.325 5.973-13.333 13.333v0.001c-0.207 9.489 10.351 16.267 18.873 12.109-4.134-2.803-6.815-7.479-6.815-12.781 0-4.79 2.188-9.070 5.62-11.893l0.027-0.021c-1.294-0.474-2.787-0.748-4.345-0.748-0.009 0-0.019 0-0.028 0h0.001z"></path>
</symbol>
<symbol id="icon-arrow-up" viewBox="0 0 32 32">
      <path
        d="M16.413 7.652v17.019h-1.811V7.652l-8.509 8.509-1.28-1.28L15.508 4.186l10.695 10.695-1.28 1.28-8.509-8.509z" />
    </symbol>
    <symbol id="icon-close-icon" viewBox="0 0 32 32">
<path stroke-linejoin="round" stroke-linecap="round" stroke-miterlimit="4" stroke-width="2.9091" d="M24 8l-16 16"></path>
<path stroke-linejoin="round" stroke-linecap="round" stroke-miterlimit="4" stroke-width="2.9091" d="M8 8l16 16"></path>
</symbol>
</defs>
</svg>
