<svg aria-hidden="true" style="position: absolute; width: 0; height: 0; overflow: hidden;" version="1.1" xmlns="http://www.w3.org/2000/svg" xmlns:xlink="http://www.w3.org/1999/xlink">
<defs>
<symbol id="icon-sun" viewBox="0 0 32 32">
<path d="M16 22.667c-3.68 0-6.667-2.987-6.667-6.667s2.987-6.667 6.667-6.667 6.667 2.987 6.667 6.667-2.987 6.667-6.667 6.667zM16 10.667c-2.947 0-5.333 2.387-5.333 5.333s2.387 5.333 5.333 5.333 5.333-2.387 5.333-5.333-2.387-5.333-5.333-5.333zM16.667 6v-5.333c0-0.373-0.293-0.667-0.667-0.667s-0.667 0.293-0.667 0.667v5.333c0 0.373 0.293 0.667 0.667 0.667s0.667-0.293 0.667-0.667zM16.667 31.333v-5.333c0-0.373-0.293-0.667-0.667-0.667s-0.667 0.293-0.667 0.667v5.333c0 0.373 0.293 0.667 0.667 0.667s0.667-0.293 0.667-0.667zM6.667 16c0-0.373-0.293-0.667-0.667-0.667h-5.333c-0.373 0-0.667 0.293-0.667 0.667s0.293 0.667 0.667 0.667h5.333c0.373 0 0.667-0.293 0.667-0.667zM32 16c0-0.373-0.293-0.667-0.667-0.667h-5.333c-0.373 0-0.667 0.293-0.667 0.667s0.293 0.667 0.667 0.667h5.333c0.373 0 0.667-0.293 0.667-0.667zM23.8 9.133l4-4c0.267-0.267 0.267-0.68 0-0.947s-0.68-0.267-0.947 0l-4 4c-0.267 0.267-0.267 0.68 0 0.947 0.118 0.123 0.283 0.199 0.467 0.199s0.349-0.076 0.466-0.199l0-0zM5.133 27.8l4-4c0.267-0.267 0.267-0.68 0-0.947s-0.68-0.267-0.947 0l-4 4c-0.267 0.267-0.267 0.68 0 0.947 0.118 0.123 0.283 0.199 0.467 0.199s0.349-0.076 0.466-0.199l0-0zM9.133 9.133c0.267-0.267 0.267-0.68 0-0.947l-4-3.987c-0.267-0.267-0.68-0.267-0.947 0s-0.267 0.68 0 0.947l4 4c0.118 0.123 0.283 0.199 0.467 0.199s0.349-0.076 0.466-0.199l0-0zM27.8 27.8c0.267-0.267 0.267-0.68 0-0.947l-4-4c-0.267-0.267-0.68-0.267-0.947 0s-0.267 0.68 0 0.947l4 4c0.118 0.123 0.283 0.199 0.467 0.199s0.349-0.076 0.466-0.199l0-0z"></path>
</symbol>
<symbol id="icon-moon" viewBox="0 0 32 32">
<path d="M18.667 32c-8.833-0.010-15.99-7.167-16-15.999v-0.001c-0.204-11.941 13.375-19.98 23.721-13.988l2.071 1.149-2.057 1.173c-8.933 4.917-8.28 18.493 1.067 22.541l2.161 0.975-1.956 1.341c-2.517 1.755-5.639 2.805-9.006 2.808h-0.001zM18.667 2.667c-7.36 0.008-13.325 5.973-13.333 13.333v0.001c-0.207 9.489 10.351 16.267 18.873 12.109-4.134-2.803-6.815-7.479-6.815-12.781 0-4.79 2.188-9.070 5.62-11.893l0.027-0.021c-1.294-0.474-2.787-0.748-4.345-0.748-0.009 0-0.019 0-0.028 0h0.001z"></path>
</symbol>
<symbol id="icon-arrow-up" viewBox="0 0 32 32">
      <path
        d="M16.413 7.652v17.019h-1.811V7.652l-8.509 8.509-1.28-1.28L15.508 4.186l10.695 10.695-1.28 1.28-8.509-8.509z" />
    </symbol>
    <symbol id="icon-close-icon" viewBox="0 0 32 32">
<path stroke-linejoin="round" stroke-linecap="round" stroke-miterlimit="4" stroke-width="2.9091" d="M24 8l-16 16"></path>
<path stroke-linejoin="round" stroke-linecap="round" stroke-miterlimit="4" stroke-width="2.9091" d="M8 8l16 16"></path>
</symbol>
<symbol id="icon-usa" viewBox="0 0 32 32">
<path fill="#f5f5f5" style="fill: var(--color1, #f5f5f5)" d="M29.603 5.517h-27.207c-1.324 0-2.397 1.073-2.397 2.397v16.172c0 1.324 1.073 2.397 2.397 2.397h27.207c1.324 0 2.397-1.073 2.397-2.397v-16.172c0-1.324-1.073-2.397-2.397-2.397z"></path>
<path fill="#ff4b55" style="fill: var(--color2, #ff4b55)" d="M0.132 7.13h31.736c-0.325-0.939-1.216-1.613-2.265-1.613h-27.207c-1.049 0-1.94 0.674-2.265 1.613zM0 11.968h32v1.613h-32zM0 8.742h32v1.613h-32zM0 16.255c0 0.305 0.247 0.552 0.552 0.552h31.448v-1.613h-32v1.061zM0 21.645h32v1.613h-32zM31.868 24.87h-31.736c0.325 0.939 1.216 1.613 2.265 1.613h27.207c1.049 0 1.94-0.674 2.265-1.613zM0 18.419h32v1.613h-32z"></path>
<path fill="#41479b" style="fill: var(--color3, #41479b)" d="M0.552 16.806h13.793c0.305-0 0.552-0.247 0.552-0.552v0-10.186c0-0.305-0.247-0.552-0.552-0.552h-11.948c-1.324 0-2.397 1.073-2.397 2.397v8.341c0 0.305 0.247 0.552 0.552 0.552v0z"></path>
<path fill="#f5f5f5" style="fill: var(--color1, #f5f5f5)" d="M1.549 6.784l0.122 0.366 0.386 0.003c0.050 0 0.071 0.064 0.030 0.094l-0.311 0.229 0.117 0.368c0.015 0.048-0.039 0.087-0.080 0.058l-0.314-0.224-0.314 0.224c-0.041 0.029-0.095-0.010-0.080-0.058l0.117-0.368-0.311-0.229c-0.040-0.030-0.019-0.093 0.030-0.094l0.386-0.003 0.122-0.366c0.016-0.048 0.083-0.048 0.099-0zM1.549 8.699l0.122 0.366 0.386 0.003c0.050 0 0.071 0.064 0.030 0.094l-0.311 0.229 0.117 0.368c0.015 0.048-0.039 0.087-0.080 0.058l-0.314-0.224-0.314 0.225c-0.041 0.029-0.095-0.010-0.080-0.058l0.117-0.368-0.311-0.229c-0.040-0.030-0.019-0.093 0.030-0.094l0.386-0.003 0.122-0.366c0.016-0.047 0.083-0.047 0.099-0zM1.549 10.615l0.122 0.366 0.386 0.003c0.050 0 0.071 0.064 0.030 0.094l-0.311 0.229 0.117 0.368c0.015 0.048-0.039 0.087-0.080 0.058l-0.314-0.224-0.314 0.225c-0.041 0.029-0.095-0.010-0.080-0.058l0.117-0.368-0.311-0.229c-0.040-0.030-0.019-0.093 0.030-0.094l0.386-0.003 0.122-0.366c0.016-0.047 0.083-0.047 0.099-0zM1.549 12.531l0.122 0.366 0.386 0.003c0.050 0 0.071 0.064 0.030 0.094l-0.311 0.229 0.117 0.368c0.015 0.048-0.039 0.087-0.080 0.058l-0.314-0.224-0.314 0.225c-0.041 0.029-0.095-0.010-0.080-0.058l0.117-0.368-0.311-0.229c-0.040-0.030-0.019-0.093 0.030-0.094l0.386-0.003 0.122-0.366c0.016-0.047 0.083-0.047 0.099-0zM1.549 14.447l0.122 0.366 0.386 0.003c0.050 0 0.071 0.064 0.030 0.094l-0.311 0.229 0.117 0.368c0.015 0.048-0.039 0.087-0.080 0.058l-0.314-0.224-0.314 0.225c-0.041 0.029-0.095-0.010-0.080-0.058l0.117-0.368-0.311-0.229c-0.040-0.030-0.019-0.093 0.030-0.094l0.386-0.003 0.122-0.366c0.016-0.047 0.083-0.047 0.099-0zM3.036 7.723l0.122 0.366 0.386 0.003c0.050 0 0.071 0.064 0.030 0.094l-0.311 0.229 0.116 0.368c0.015 0.048-0.039 0.087-0.080 0.058l-0.314-0.225-0.314 0.225c-0.041 0.029-0.095-0.010-0.080-0.058l0.116-0.368-0.311-0.229c-0.040-0.030-0.019-0.093 0.030-0.094l0.386-0.003 0.122-0.366c0.016-0.047 0.083-0.047 0.099 0zM3.036 9.639l0.122 0.366 0.386 0.003c0.050 0 0.071 0.064 0.030 0.094l-0.311 0.229 0.116 0.368c0.015 0.048-0.039 0.087-0.080 0.058l-0.314-0.225-0.314 0.225c-0.041 0.029-0.095-0.010-0.080-0.058l0.116-0.368-0.311-0.229c-0.040-0.030-0.019-0.093 0.030-0.094l0.386-0.003 0.122-0.366c0.016-0.047 0.083-0.047 0.099 0zM3.036 11.555l0.122 0.366 0.386 0.003c0.050 0 0.071 0.064 0.030 0.094l-0.311 0.229 0.116 0.368c0.015 0.048-0.039 0.087-0.080 0.058l-0.314-0.225-0.314 0.225c-0.041 0.029-0.095-0.010-0.080-0.058l0.116-0.368-0.311-0.229c-0.040-0.030-0.019-0.093 0.030-0.094l0.386-0.003 0.122-0.366c0.016-0.047 0.083-0.047 0.099 0zM3.036 13.471l0.122 0.366 0.386 0.003c0.050 0 0.071 0.064 0.030 0.094l-0.311 0.229 0.116 0.368c0.015 0.048-0.039 0.087-0.080 0.058l-0.314-0.225-0.314 0.225c-0.041 0.029-0.095-0.010-0.080-0.058l0.116-0.368-0.311-0.229c-0.040-0.030-0.019-0.093 0.030-0.094l0.386-0.003 0.122-0.366c0.016-0.047 0.083-0.047 0.099 0zM4.523 6.784l0.122 0.366 0.386 0.003c0.050 0 0.071 0.064 0.030 0.094l-0.311 0.229 0.117 0.368c0.015 0.048-0.039 0.087-0.080 0.058l-0.314-0.224-0.314 0.224c-0.041 0.029-0.095-0.010-0.080-0.058l0.117-0.368-0.311-0.229c-0.040-0.030-0.019-0.093 0.030-0.094l0.386-0.003 0.122-0.366c0.016-0.047 0.083-0.047 0.099 0zM4.523 8.699l0.122 0.366 0.386 0.003c0.050 0 0.071 0.064 0.030 0.094l-0.311 0.229 0.117 0.368c0.015 0.048-0.039 0.087-0.080 0.058l-0.314-0.225-0.314 0.225c-0.041 0.029-0.095-0.010-0.080-0.058l0.117-0.368-0.311-0.229c-0.040-0.030-0.019-0.093 0.030-0.094l0.386-0.003 0.122-0.366c0.016-0.047 0.083-0.047 0.099 0zM4.523 10.615l0.122 0.366 0.386 0.003c0.050 0 0.071 0.064 0.030 0.094l-0.311 0.229 0.117 0.368c0.015 0.048-0.039 0.087-0.080 0.058l-0.314-0.225-0.314 0.225c-0.041 0.029-0.095-0.010-0.080-0.058l0.117-0.368-0.311-0.229c-0.040-0.030-0.019-0.093 0.030-0.094l0.386-0.003 0.122-0.366c0.016-0.047 0.083-0.047 0.099 0zM4.523 12.531l0.122 0.366 0.386 0.003c0.050 0 0.071 0.064 0.030 0.094l-0.311 0.229 0.117 0.368c0.015 0.048-0.039 0.087-0.080 0.058l-0.314-0.225-0.314 0.225c-0.041 0.029-0.095-0.010-0.080-0.058l0.117-0.368-0.311-0.229c-0.040-0.030-0.019-0.093 0.030-0.094l0.386-0.003 0.122-0.366c0.016-0.047 0.083-0.047 0.099 0zM4.523 14.447l0.122 0.366 0.386 0.003c0.050 0 0.071 0.064 0.030 0.094l-0.311 0.229 0.117 0.368c0.015 0.048-0.039 0.087-0.080 0.058l-0.314-0.225-0.314 0.225c-0.041 0.029-0.095-0.010-0.080-0.058l0.117-0.368-0.311-0.229c-0.040-0.030-0.019-0.093 0.030-0.094l0.386-0.003 0.122-0.366c0.016-0.047 0.083-0.047 0.099 0zM6.011 7.723l0.122 0.366 0.386 0.003c0.050 0 0.071 0.064 0.030 0.094l-0.311 0.229 0.117 0.368c0.015 0.048-0.039 0.087-0.080 0.058l-0.314-0.225-0.314 0.225c-0.041 0.029-0.095-0.010-0.080-0.058l0.117-0.368-0.311-0.229c-0.040-0.030-0.019-0.093 0.030-0.094l0.386-0.003 0.122-0.366c0.016-0.047 0.083-0.047 0.099 0zM6.011 9.639l0.122 0.366 0.386 0.003c0.050 0 0.071 0.064 0.030 0.094l-0.311 0.229 0.117 0.368c0.015 0.048-0.039 0.087-0.080 0.058l-0.314-0.225-0.314 0.225c-0.041 0.029-0.095-0.010-0.080-0.058l0.117-0.368-0.311-0.229c-0.040-0.030-0.019-0.093 0.030-0.094l0.386-0.003 0.122-0.366c0.016-0.047 0.083-0.047 0.099 0zM6.011 11.555l0.122 0.366 0.386 0.003c0.050 0 0.071 0.064 0.030 0.094l-0.311 0.229 0.117 0.368c0.015 0.048-0.039 0.087-0.080 0.058l-0.314-0.225-0.314 0.225c-0.041 0.029-0.095-0.010-0.080-0.058l0.117-0.368-0.311-0.229c-0.040-0.030-0.019-0.093 0.030-0.094l0.386-0.003 0.122-0.366c0.016-0.047 0.083-0.047 0.099 0zM6.011 13.471l0.122 0.366 0.386 0.003c0.050 0 0.071 0.064 0.030 0.094l-0.311 0.229 0.117 0.368c0.015 0.048-0.039 0.087-0.080 0.058l-0.314-0.225-0.314 0.225c-0.041 0.029-0.095-0.010-0.080-0.058l0.117-0.368-0.311-0.229c-0.040-0.030-0.019-0.093 0.030-0.094l0.386-0.003 0.122-0.366c0.016-0.047 0.083-0.047 0.099 0zM7.498 6.784l0.122 0.366 0.386 0.003c0.050 0 0.071 0.064 0.030 0.094l-0.311 0.229 0.117 0.368c0.015 0.048-0.039 0.087-0.080 0.058l-0.314-0.224-0.314 0.224c-0.041 0.029-0.095-0.010-0.080-0.058l0.117-0.368-0.311-0.229c-0.040-0.030-0.019-0.093 0.030-0.094l0.386-0.003 0.122-0.366c0.016-0.048 0.083-0.048 0.099-0zM7.498 8.699l0.122 0.366 0.386 0.003c0.050 0 0.071 0.064 0.030 0.094l-0.311 0.229 0.117 0.368c0.015 0.048-0.039 0.087-0.080 0.058l-0.314-0.225-0.314 0.225c-0.041 0.029-0.095-0.010-0.080-0.058l0.117-0.368-0.311-0.229c-0.040-0.030-0.019-0.093 0.030-0.094l0.386-0.003 0.122-0.366c0.016-0.047 0.083-0.047 0.099 0zM7.498 10.615l0.122 0.366 0.386 0.003c0.050 0 0.071 0.064 0.030 0.094l-0.311 0.229 0.117 0.368c0.015 0.048-0.039 0.087-0.080 0.058l-0.314-0.225-0.314 0.225c-0.041 0.029-0.095-0.010-0.080-0.058l0.117-0.368-0.311-0.229c-0.040-0.030-0.019-0.093 0.030-0.094l0.386-0.003 0.122-0.366c0.016-0.047 0.083-0.047 0.099 0zM7.498 12.531l0.122 0.366 0.386 0.003c0.050 0 0.071 0.064 0.030 0.094l-0.311 0.229 0.117 0.368c0.015 0.048-0.039 0.087-0.080 0.058l-0.314-0.225-0.314 0.225c-0.041 0.029-0.095-0.010-0.080-0.058l0.117-0.368-0.311-0.229c-0.040-0.030-0.019-0.093 0.030-0.094l0.386-0.003 0.122-0.366c0.016-0.047 0.083-0.047 0.099 0zM7.498 14.447l0.122 0.366 0.386 0.003c0.050 0 0.071 0.064 0.030 0.094l-0.311 0.229 0.117 0.368c0.015 0.048-0.039 0.087-0.080 0.058l-0.314-0.225-0.314 0.225c-0.041 0.029-0.095-0.010-0.080-0.058l0.117-0.368-0.311-0.229c-0.040-0.030-0.019-0.093 0.030-0.094l0.386-0.003 0.122-0.366c0.016-0.047 0.083-0.047 0.099 0zM8.985 7.723l0.122 0.366 0.386 0.003c0.050 0 0.071 0.064 0.030 0.094l-0.311 0.229 0.117 0.368c0.015 0.048-0.039 0.087-0.080 0.058l-0.314-0.225-0.314 0.225c-0.041 0.029-0.095-0.010-0.080-0.058l0.117-0.368-0.311-0.229c-0.040-0.030-0.020-0.093 0.030-0.094l0.386-0.003 0.122-0.366c0.016-0.047 0.083-0.047 0.099 0zM8.985 9.639l0.122 0.366 0.386 0.003c0.050 0 0.071 0.064 0.030 0.094l-0.311 0.229 0.117 0.368c0.015 0.048-0.039 0.087-0.080 0.058l-0.314-0.225-0.314 0.225c-0.041 0.029-0.095-0.010-0.080-0.058l0.117-0.368-0.311-0.229c-0.040-0.030-0.020-0.093 0.030-0.094l0.386-0.003 0.122-0.366c0.016-0.047 0.083-0.047 0.099 0zM8.985 11.555l0.122 0.366 0.386 0.003c0.050 0 0.071 0.064 0.030 0.094l-0.311 0.229 0.117 0.368c0.015 0.048-0.039 0.087-0.080 0.058l-0.314-0.225-0.314 0.225c-0.041 0.029-0.095-0.010-0.080-0.058l0.117-0.368-0.311-0.229c-0.040-0.030-0.020-0.093 0.030-0.094l0.386-0.003 0.122-0.366c0.016-0.047 0.083-0.047 0.099 0zM8.985 13.471l0.122 0.366 0.386 0.003c0.050 0 0.071 0.064 0.030 0.094l-0.311 0.229 0.117 0.368c0.015 0.048-0.039 0.087-0.080 0.058l-0.314-0.225-0.314 0.225c-0.041 0.029-0.095-0.010-0.080-0.058l0.117-0.368-0.311-0.229c-0.040-0.030-0.020-0.093 0.030-0.094l0.386-0.003 0.122-0.366c0.016-0.047 0.083-0.047 0.099 0zM10.472 6.784l0.122 0.366 0.386 0.003c0.050 0 0.071 0.064 0.030 0.094l-0.311 0.229 0.117 0.368c0.015 0.048-0.039 0.087-0.080 0.058l-0.314-0.224-0.314 0.224c-0.041 0.029-0.095-0.010-0.080-0.058l0.117-0.368-0.311-0.229c-0.040-0.030-0.020-0.093 0.030-0.094l0.386-0.003 0.122-0.366c0.016-0.047 0.083-0.047 0.099 0zM10.472 8.699l0.122 0.366 0.386 0.003c0.050 0 0.071 0.064 0.030 0.094l-0.311 0.229 0.117 0.368c0.015 0.048-0.039 0.087-0.080 0.058l-0.314-0.225-0.314 0.225c-0.041 0.029-0.095-0.010-0.080-0.058l0.117-0.368-0.311-0.229c-0.040-0.030-0.020-0.093 0.030-0.094l0.386-0.003 0.122-0.366c0.016-0.047 0.083-0.047 0.099 0zM10.472 10.615l0.122 0.366 0.386 0.003c0.050 0 0.071 0.064 0.030 0.094l-0.311 0.229 0.117 0.368c0.015 0.048-0.039 0.087-0.080 0.058l-0.314-0.225-0.314 0.225c-0.041 0.029-0.095-0.010-0.080-0.058l0.117-0.368-0.311-0.229c-0.040-0.030-0.020-0.093 0.030-0.094l0.386-0.003 0.122-0.366c0.016-0.047 0.083-0.047 0.099 0zM10.472 12.531l0.122 0.366 0.386 0.003c0.050 0 0.071 0.064 0.030 0.094l-0.311 0.229 0.117 0.368c0.015 0.048-0.039 0.087-0.080 0.058l-0.314-0.225-0.314 0.225c-0.041 0.029-0.095-0.010-0.080-0.058l0.117-0.368-0.311-0.229c-0.040-0.030-0.020-0.093 0.030-0.094l0.386-0.003 0.122-0.366c0.016-0.047 0.083-0.047 0.099 0zM10.472 14.447l0.122 0.366 0.386 0.003c0.050 0 0.071 0.064 0.030 0.094l-0.311 0.229 0.117 0.368c0.015 0.048-0.039 0.087-0.080 0.058l-0.314-0.225-0.314 0.225c-0.041 0.029-0.095-0.010-0.080-0.058l0.117-0.368-0.311-0.229c-0.040-0.030-0.020-0.093 0.030-0.094l0.386-0.003 0.122-0.366c0.016-0.047 0.083-0.047 0.099 0zM11.959 7.723l0.122 0.366 0.386 0.003c0.050 0 0.071 0.064 0.030 0.094l-0.311 0.229 0.117 0.368c0.015 0.048-0.039 0.087-0.080 0.058l-0.314-0.225-0.314 0.225c-0.041 0.029-0.095-0.010-0.080-0.058l0.117-0.368-0.311-0.229c-0.040-0.030-0.020-0.093 0.030-0.094l0.386-0.003 0.122-0.366c0.016-0.047 0.083-0.047 0.099 0zM11.959 9.639l0.122 0.366 0.386 0.003c0.050 0 0.071 0.064 0.030 0.094l-0.311 0.229 0.117 0.368c0.015 0.048-0.039 0.087-0.080 0.058l-0.314-0.225-0.314 0.225c-0.041 0.029-0.095-0.010-0.080-0.058l0.117-0.368-0.311-0.229c-0.040-0.030-0.020-0.093 0.030-0.094l0.386-0.003 0.122-0.366c0.016-0.047 0.083-0.047 0.099 0zM11.959 11.555l0.122 0.366 0.386 0.003c0.050 0 0.071 0.064 0.030 0.094l-0.311 0.229 0.117 0.368c0.015 0.048-0.039 0.087-0.080 0.058l-0.314-0.225-0.314 0.225c-0.041 0.029-0.095-0.010-0.080-0.058l0.117-0.368-0.311-0.229c-0.040-0.030-0.020-0.093 0.030-0.094l0.386-0.003 0.122-0.366c0.016-0.047 0.083-0.047 0.099 0zM11.959 13.471l0.122 0.366 0.386 0.003c0.050 0 0.071 0.064 0.030 0.094l-0.311 0.229 0.117 0.368c0.015 0.048-0.039 0.087-0.080 0.058l-0.314-0.225-0.314 0.225c-0.041 0.029-0.095-0.010-0.080-0.058l0.117-0.368-0.311-0.229c-0.040-0.030-0.020-0.093 0.030-0.094l0.386-0.003 0.122-0.366c0.016-0.047 0.083-0.047 0.099 0zM13.446 6.784l0.122 0.366 0.386 0.003c0.050 0 0.071 0.064 0.030 0.094l-0.311 0.229 0.117 0.368c0.015 0.048-0.039 0.087-0.080 0.058l-0.314-0.224-0.314 0.224c-0.041 0.029-0.095-0.010-0.080-0.058l0.117-0.368-0.311-0.229c-0.040-0.030-0.020-0.093 0.030-0.094l0.386-0.003 0.122-0.366c0.016-0.047 0.083-0.047 0.099 0zM13.446 8.699l0.122 0.366 0.386 0.003c0.050 0 0.071 0.064 0.030 0.094l-0.311 0.229 0.117 0.368c0.015 0.048-0.039 0.087-0.080 0.058l-0.314-0.225-0.314 0.225c-0.041 0.029-0.095-0.010-0.080-0.058l0.117-0.368-0.311-0.229c-0.040-0.030-0.020-0.093 0.030-0.094l0.386-0.003 0.122-0.366c0.016-0.047 0.083-0.047 0.099 0zM13.446 10.615l0.122 0.366 0.386 0.003c0.050 0 0.071 0.064 0.030 0.094l-0.311 0.229 0.117 0.368c0.015 0.048-0.039 0.087-0.080 0.058l-0.314-0.225-0.314 0.225c-0.041 0.029-0.095-0.010-0.080-0.058l0.117-0.368-0.311-0.229c-0.040-0.030-0.020-0.093 0.030-0.094l0.386-0.003 0.122-0.366c0.016-0.047 0.083-0.047 0.099 0zM13.446 12.531l0.122 0.366 0.386 0.003c0.050 0 0.071 0.064 0.030 0.094l-0.311 0.229 0.117 0.368c0.015 0.048-0.039 0.087-0.080 0.058l-0.314-0.225-0.314 0.225c-0.041 0.029-0.095-0.010-0.080-0.058l0.117-0.368-0.311-0.229c-0.040-0.030-0.020-0.093 0.030-0.094l0.386-0.003 0.122-0.366c0.016-0.047 0.083-0.047 0.099 0zM13.446 14.447l0.122 0.366 0.386 0.003c0.050 0 0.071 0.064 0.030 0.094l-0.311 0.229 0.117 0.368c0.015 0.048-0.039 0.087-0.080 0.058l-0.314-0.225-0.314 0.225c-0.041 0.029-0.095-0.010-0.080-0.058l0.117-0.368-0.311-0.229c-0.040-0.030-0.020-0.093 0.030-0.094l0.386-0.003 0.122-0.366c0.016-0.047 0.083-0.047 0.099 0z"></path>
</symbol>
</defs>
</svg>
